# xmcd
#
# Track frame offsets:
#	150
#	19688
#	43276
#	62587
#	80164
#	97133
#	116538
#	131764
#	156815
#	174840
#
# Disc length: 2574 seconds
#
# Revision: 1
# Processed by: cddbd v1.5.2PL0 Copyright (c) Steve Scherf et al.
# Submitted via: EZCDAudioConverter 8.0.2.1
#
DISCID=830a0c0a
DTITLE=Various Artist - Top Sài Gòn. Khúc Rong Ca
DYEAR=1999
DGENRE=Contemporary Pop
TTITLE0=Lam Trường - Cô đơn
TTITLE1=Phương Thanh - Như giọt mưa rơi
TTITLE2=Tam Ca 3A - Cảm xúc chiều mưa
TTITLE3=Mỹ Hạnh - Đừng nói yêu em
TTITLE4=Lam Trường - Gởi đôi mắt nai
TTITLE5=Tam Ca 3A - Ngứa cổ hát chơi
TTITLE6=Ho Le Thu - Níu tay nghìn trùng
TTITLE7=Tam Ca 3A - Em tôi
TTITLE8=Thu Minh - Bất ngờ em đến
TTITLE9=Phương Thanh - Khúc rong ca
EXTD=
EXTT0=
EXTT1=
EXTT2=
EXTT3=
EXTT4=
EXTT5=
EXTT6=
EXTT7=
EXTT8=
EXTT9=
PLAYORDER=
